<?xml version="1.0" encoding="UTF-8"?>
<svg version="1.1" xmlns="http://www.w3.org/2000/svg" width="500" height="500">
<path d="M0 0 C165 0 330 0 500 0 C500 165 500 330 500 500 C335 500 170 500 0 500 C0 335 0 170 0 0 Z " fill="#201D1D" transform="translate(0,0)"/>
<path d="M0 0 C14 0 14 0 20 3 C22.48386059 6.72579089 22.3804212 8.58711402 22 13 C20.69600069 16.08841941 19.72611897 17.55151476 16.875 19.3125 C12.84066513 20.27723225 9.14542638 20.12374407 5 20 C5 24.62 5 29.24 5 34 C3.35 34 1.7 34 0 34 C0 22.78 0 11.56 0 0 Z " fill="#EBEBEB" transform="translate(268,219)"/>
<path d="M0 0 C3.8745598 0.85648164 5.60351256 2.5328491 8.2265625 5.4921875 C8.2265625 6.8121875 8.2265625 8.1321875 8.2265625 9.4921875 C6.9065625 9.4921875 5.5865625 9.4921875 4.2265625 9.4921875 C3.5665625 8.1721875 2.9065625 6.8521875 2.2265625 5.4921875 C-1.77598206 5.40037616 -1.77598206 5.40037616 -5.7734375 5.4921875 C-8.19159916 7.91034916 -6.95890769 14.17996569 -6.9609375 17.4296875 C-6.97318359 18.45771484 -6.98542969 19.48574219 -6.99804688 20.54492188 C-6.99998047 21.52654297 -7.00191406 22.50816406 -7.00390625 23.51953125 C-7.00801514 24.42437256 -7.01212402 25.32921387 -7.01635742 26.26147461 C-6.98685047 28.69637528 -6.98685047 28.69637528 -4.7734375 30.4921875 C-1.23881163 30.48729599 -1.23881163 30.48729599 2.2265625 29.4921875 C3.73950538 27.55621718 3.73950538 27.55621718 4.2265625 25.4921875 C5.5465625 25.4921875 6.8665625 25.4921875 8.2265625 25.4921875 C7.90444258 28.39126675 7.33608131 30.31600506 5.7890625 32.8046875 C2.39032513 35.0428804 -0.24305737 35.01611878 -4.23828125 35.12109375 C-8.18108974 34.14298564 -9.45272287 32.84886261 -11.7734375 29.4921875 C-12.50993273 25.4784974 -12.47129227 21.56234075 -12.3984375 17.4921875 C-12.41777344 16.41195312 -12.43710938 15.33171875 -12.45703125 14.21875 C-12.40873098 6.39410675 -12.40873098 6.39410675 -9.51171875 2.28125 C-5.99277566 -0.01785975 -4.08807405 -0.2324323 0 0 Z " fill="#F1F1F1" transform="translate(223.7734375,218.5078125)"/>
<path d="M0 0 C-0.02734375 2.26171875 -0.02734375 2.26171875 -1 5 C-3.58521672 6.54515265 -5.8144194 7.67659618 -8.5625 8.8125 C-11.016875 9.864375 -13.47125 10.91625 -16 12 C-10.72 14.97 -5.44 17.94 0 21 C0 22.32 0 23.64 0 25 C-4.6029598 23.27502493 -8.93255824 21.0904129 -13.3125 18.875 C-14.05306641 18.50246094 -14.79363281 18.12992188 -15.55664062 17.74609375 C-17.37201217 16.83255194 -19.18613282 15.91652513 -21 15 C-21 13.35 -21 11.7 -21 10 C-17.87852455 8.32666842 -14.75226502 6.66248284 -11.625 5 C-10.73554688 4.52304688 -9.84609375 4.04609375 -8.9296875 3.5546875 C-8.07890625 3.10351562 -7.228125 2.65234375 -6.3515625 2.1875 C-5.56604004 1.76855469 -4.78051758 1.34960938 -3.97119141 0.91796875 C-2 0 -2 0 0 0 Z " fill="#E7E7E7" transform="translate(204,225)"/>
<path d="M0 0 C4.6029598 1.72497507 8.93255824 3.9095871 13.3125 6.125 C14.05306641 6.49753906 14.79363281 6.87007812 15.55664062 7.25390625 C17.37201217 8.16744806 19.18613282 9.08347487 21 10 C21 11.65 21 13.3 21 15 C11.1 19.95 11.1 19.95 1 25 C0.67 23.68 0.34 22.36 0 21 C4.95 18.36 9.9 15.72 15 13 C11.76963876 10.57722907 8.78383006 8.70562325 5.25 6.8125 C4.26515625 6.28269531 3.2803125 5.75289062 2.265625 5.20703125 C1.51796875 4.80871094 0.7703125 4.41039062 0 4 C0 2.68 0 1.36 0 0 Z " fill="#EEEEEE" transform="translate(296,225)"/>
<path d="M0 0 C9.625 -0.25 9.625 -0.25 13 2 C13.3984375 3.875 13.3984375 3.875 13.375 6 C13.38273437 6.70125 13.39046875 7.4025 13.3984375 8.125 C13 10 13 10 10 12 C6.64683663 12.26402861 3.36941342 12.08751723 0 12 C0 8.04 0 4.08 0 0 Z " fill="#2A2727" transform="translate(272,223)"/>
<path d="M0 0 C2.625 0.375 2.625 0.375 5 1 C6.125 5.75 6.125 5.75 5 8 C3.00045254 8.04254356 0.99958364 8.04080783 -1 8 C-2 7 -2 7 -2.1875 4.5625 C-2 2 -2 2 0 0 Z " fill="#EFEEEE" transform="translate(248,245)"/>
</svg>
