<?xml version="1.0" encoding="UTF-8"?>
<svg version="1.1" xmlns="http://www.w3.org/2000/svg" width="500" height="500">
<path d="M0 0 C165 0 330 0 500 0 C500 165 500 330 500 500 C335 500 170 500 0 500 C0 335 0 170 0 0 Z " fill="#09090B" transform="translate(0,0)"/>
<path d="M0 0 C59.46882217 0 59.46882217 0 70 10 C74.74769722 15.10377451 77.24811361 20.29493843 79 27 C79.27457031 27.98419922 79.27457031 27.98419922 79.5546875 28.98828125 C81.64026257 38.40995811 79.24627056 48.36528167 74.4921875 56.6171875 C68.35759064 65.09149106 60.24761733 70.095303 50 72 C44.1388092 72.46418998 38.24728143 72.28273985 32.375 72.1875 C26.97125 72.125625 21.5675 72.06375 16 72 C16 89.16 16 106.32 16 124 C10.72 124 5.44 124 0 124 C0 83.08 0 42.16 0 0 Z " fill="#F8F8F8" transform="translate(317,148)"/>
<path d="M0 0 C7.95435546 6.54024783 13.3843034 13.2976845 14.5 23.75 C14.603125 25.255625 14.70625 26.76125 14.8125 28.3125 C9.8625 28.3125 4.9125 28.3125 -0.1875 28.3125 C-0.703125 26.62125 -1.21875 24.93 -1.75 23.1875 C-4.11027827 16.6841801 -7.31573654 13.20887394 -13.484375 10.1875 C-19.45999751 8.25319445 -26.82121233 8.06496307 -32.73828125 10.2578125 C-38.88056506 13.93624235 -42.24287321 18.42709029 -44.1875 25.3125 C-44.49924431 28.47137318 -44.49924431 28.47137318 -44.47802734 31.80175781 C-44.49078705 33.07037659 -44.50354675 34.33899536 -44.51669312 35.64605713 C-44.51975172 37.01924485 -44.52197897 38.39243464 -44.5234375 39.765625 C-44.52987422 41.19041067 -44.53660322 42.61519505 -44.54360962 44.03997803 C-44.55555667 47.02228861 -44.55929325 50.0044836 -44.55810547 52.98681641 C-44.55790273 56.7839264 -44.5851682 60.58028413 -44.61964989 64.37721634 C-44.64203539 67.32002068 -44.64593944 70.26264754 -44.64488602 73.20552826 C-44.6472259 74.60399713 -44.65595722 76.00247213 -44.67155075 77.40085602 C-44.75910993 86.06579874 -44.72980563 95.03459394 -38.77548218 101.95318604 C-33.12073891 106.99196761 -27.56510537 107.76873209 -20.26171875 107.625 C-14.0796934 106.99658573 -9.82036737 104.83887602 -5.3125 100.625 C-2.72368322 96.58949149 -1.51199126 92.91336436 -0.1875 88.3125 C4.7625 88.3125 9.7125 88.3125 14.8125 88.3125 C14.48009479 98.28465623 10.85533165 106.86879327 3.5625 113.8125 C-6.38683813 121.89633723 -17.76956509 123.04616355 -30.1875 122.3125 C-39.98762716 120.71081717 -48.40941197 115.4016031 -54.57325745 107.64527893 C-60.87887033 98.53289316 -60.79695595 88.31773783 -60.75390625 77.69140625 C-60.75915531 76.09919373 -60.76543643 74.50698431 -60.77268982 72.91477966 C-60.78303834 69.59399681 -60.77861339 66.27364394 -60.76391602 62.95288086 C-60.74673675 58.72881515 -60.77024095 54.506111 -60.80540562 50.282197 C-60.82752384 46.99870549 -60.82590364 43.7155326 -60.8176403 40.43198967 C-60.81682864 38.87609298 -60.82353941 37.320171 -60.83841133 35.76434517 C-60.9269506 24.82840301 -59.6198996 15.07832773 -53 5.9375 C-37.90361453 -8.15245977 -17.79879117 -9.42288944 0 0 Z " fill="#FBFBFB" transform="translate(170.1875,151.6875)"/>
<path d="M0 0 C0 4.95 0 9.9 0 15 C-6.125 18.0625 -6.125 18.0625 -8.3515625 19.17358398 C-12.6847151 21.33671346 -17.01273617 23.50965926 -21.33547974 25.69352722 C-23.94132526 27.00920195 -26.54892607 28.32137749 -29.15667725 29.63327026 C-30.44929909 30.28455142 -31.74119414 30.93727747 -33.0322876 31.59158325 C-57.52441635 44 -57.52441635 44 -63 44 C-63 44.66 -63 45.32 -63 46 C-61.96741562 46.10964584 -60.93483124 46.21929169 -59.87095642 46.33226013 C-56.08816724 46.98479115 -53.46933494 47.96221839 -50.06469727 49.68383789 C-48.94406387 50.24434341 -47.82343048 50.80484894 -46.6688385 51.38233948 C-45.4679176 51.99556273 -44.26710941 52.60900675 -43.06640625 53.22265625 C-41.82131772 53.84986943 -40.57578097 54.47619356 -39.32981873 55.10166931 C-36.06865094 56.74174969 -32.81367262 58.3937566 -29.55987549 60.04840088 C-26.23175246 61.73814157 -22.89786245 63.41642217 -19.56445312 65.09570312 C-13.03729145 68.3860099 -6.51720014 71.68999247 0 75 C0 79.95 0 84.9 0 90 C-4.45769629 89.10846074 -7.81664755 87.79963259 -11.79394531 85.78125 C-12.45631195 85.45108887 -13.11867859 85.12092773 -13.80111694 84.78076172 C-15.97973237 83.69295258 -18.15393982 82.5966334 -20.328125 81.5 C-21.84292636 80.74106996 -23.35796487 79.98261308 -24.87322998 79.22460938 C-28.04233166 77.63776058 -31.20943115 76.04700942 -34.375 74.453125 C-38.4401237 72.40638367 -42.50871496 70.36665749 -46.57863235 68.32946777 C-49.70379994 66.76481012 -52.8278284 65.19789048 -55.9514389 63.63012695 C-57.45202574 62.87697862 -58.95280389 62.12421137 -60.4537735 61.37182617 C-62.5447887 60.32289666 -64.63442255 59.27126893 -66.72363281 58.21875 C-67.34803253 57.90599121 -67.97243225 57.59323242 -68.61575317 57.27099609 C-72.88530473 55.11469527 -72.88530473 55.11469527 -74 54 C-74.08631874 52.65732587 -74.10706473 51.31025678 -74.09765625 49.96484375 C-74.09443359 49.15595703 -74.09121094 48.34707031 -74.08789062 47.51367188 C-74.07951172 46.66353516 -74.07113281 45.81339844 -74.0625 44.9375 C-74.05798828 44.08349609 -74.05347656 43.22949219 -74.04882812 42.34960938 C-74.03700373 40.23304337 -74.01906769 38.11651315 -74 36 C-64.64925578 31.30149417 -55.29637705 26.60726816 -45.94072151 21.91854858 C-41.59694732 19.74143493 -37.25393242 17.56283391 -32.91259766 15.38085938 C-28.72575989 13.27660361 -24.53700029 11.1762216 -20.34685898 9.07855225 C-18.74572032 8.27613012 -17.14528837 7.4722963 -15.54556656 6.66705322 C-13.31102066 5.54255924 -11.07405234 4.42303568 -8.83642578 3.3046875 C-7.83733185 2.79974762 -7.83733185 2.79974762 -6.8180542 2.28460693 C-2.22810432 0 -2.22810432 0 0 0 Z " fill="#FAFAFA" transform="translate(80,170)"/>
<path d="M0 0 C4.57248094 1.52416031 8.66134868 3.19220419 12.92333984 5.34814453 C13.5874588 5.68005798 14.25157776 6.01197144 14.93582153 6.35394287 C17.11278008 7.4431143 19.28685573 8.53791166 21.4609375 9.6328125 C22.97676361 10.39259221 24.49276768 11.15201698 26.00894165 11.91110229 C29.9858117 13.90334298 33.96025499 15.90037815 37.9342041 17.8984375 C41.99503979 19.93911152 46.0581632 21.97521969 50.12109375 24.01171875 C58.08297044 28.00335998 66.04207224 32.00049178 74 36 C74 41.94 74 47.88 74 54 C64.64902356 58.69804829 55.29637869 63.39273101 45.94072151 68.08145142 C41.59694732 70.25856507 37.25393242 72.43716609 32.91259766 74.61914062 C28.72575989 76.72339639 24.53700029 78.8237784 20.34685898 80.92144775 C18.74572032 81.72386988 17.14528837 82.5277037 15.54556656 83.33294678 C13.31102066 84.45744076 11.07405234 85.57696432 8.83642578 86.6953125 C8.17036316 87.03193909 7.50430054 87.36856567 6.8180542 87.71539307 C2.22810432 90 2.22810432 90 0 90 C0 85.05 0 80.1 0 75 C6.25 71.875 6.25 71.875 8.49438477 70.75390625 C13.2794862 68.36327111 18.06065554 65.96493608 22.83984375 63.5625 C24.67813574 62.63973974 26.51657716 61.71727807 28.35510254 60.79498291 C30.14078049 59.89845624 31.92538559 58.99979368 33.70996094 58.10107422 C39.44407334 55.22592128 45.19560317 52.38825744 50.98828125 49.6328125 C52.00059814 49.1495752 53.01291504 48.66633789 54.0559082 48.16845703 C57.05636545 46.97762957 59.80614552 46.40825715 63 46 C63 45.34 63 44.68 63 44 C62.06986084 43.94239502 61.13972168 43.88479004 60.18139648 43.82543945 C54.67358705 43.02654027 49.99681751 40.30648576 45.09765625 37.79296875 C44.06112411 37.27116531 43.02459198 36.74936188 41.95664978 36.21174622 C38.6537689 34.54636141 35.35811244 32.86721478 32.0625 31.1875 C29.85007585 30.06873849 27.63718965 28.95089022 25.42382812 27.83398438 C21.34744554 25.77542545 17.27382512 23.71160942 13.20336914 21.64135742 C8.8116084 19.40849924 4.40956885 17.19746712 0 15 C0 10.05 0 5.1 0 0 Z " fill="#FCFCFC" transform="translate(420,170)"/>
<path d="M0 0 C5.445 -0.103125 10.89 -0.20625 16.5 -0.3125 C18.20220703 -0.35802002 19.90441406 -0.40354004 21.65820312 -0.45043945 C35.03686789 -0.659794 35.03686789 -0.659794 40.62719727 3.61816406 C46.22185866 9.24963898 47.1506466 14.17056801 47.25 21.8125 C47.18188852 29.10799622 46.46984149 33.14018354 41.625 38.75 C36.46537208 43.17253822 32.85244916 44.4397938 26.07421875 44.29296875 C25.41087524 44.28994751 24.74753174 44.28692627 24.06408691 44.28381348 C21.60506452 44.26821179 19.14626532 44.22632804 16.6875 44.1875 C11.180625 44.125625 5.67375 44.06375 0 44 C0 29.48 0 14.96 0 0 Z " fill="#09090B" transform="translate(333,162)"/>
<path d="M0 0 C3.92761963 3.82691144 5.25968141 6.80003535 5.875 12.25 C5.65287734 16.8879212 4.32536476 20.71865583 1.4375 24.375 C-2.18378065 27.17147703 -5.62387159 28.24326268 -10.125 28.875 C-15.03137692 28.16134518 -18.57530587 26.6310498 -21.890625 22.8671875 C-24.89370725 18.3202672 -25.63030059 13.70487647 -24.5625 8.375 C-22.95511389 4.66467 -21.17341307 1.44545522 -17.7578125 -0.82421875 C-12.03169065 -2.91292868 -5.46071327 -2.49085167 0 0 Z " fill="#F9F9F9" transform="translate(259.5625,245.625)"/>
</svg>
